<svg xmlns="http://www.w3.org/2000/svg" id="Capa_1" enable-background="new 0 0 511.946 511.946" height="512" viewBox="0 0 511.946 511.946" width="512"><g><path d="m163.36 185.807c21.264 0 38.563-17.299 38.563-38.563-1.938-51.089-75.195-51.075-77.126 0 0 21.264 17.299 38.563 38.563 38.563zm0-62.126c12.992 0 23.563 10.57 23.563 23.563-1.185 31.216-45.945 31.208-47.125 0-.001-12.993 10.57-23.563 23.562-23.563z" fill="#ffffff"/><path d="m209.407 310.056c4.143 0 7.5-3.357 7.5-7.5v-93.187c0-4.143-3.357-7.5-7.5-7.5h-93.187c-4.143 0-7.5 3.357-7.5 7.5v93.187c0 4.143 3.357 7.5 7.5 7.5zm-38.547-15.001v-31.593h31.047v31.593zm31.047-46.593h-31.047v-31.594h31.047zm-46.047-31.594v31.594h-32.14v-31.594zm-32.14 46.594h32.14v31.593h-32.14z" fill="#ffffff"/><path d="m147.829 403.775c-4.143 0-7.5 3.357-7.5 7.5v13.49c.344 9.931 14.66 9.924 15 0v-13.49c0-4.143-3.358-7.5-7.5-7.5z" fill="#ffffff"/><path d="m287.763 326.118c-4.143 0-7.5 3.357-7.5 7.5v93.187c0 4.143 3.357 7.5 7.5 7.5h154.613c4.143 0 7.5-3.357 7.5-7.5v-93.187c0-4.143-3.357-7.5-7.5-7.5zm7.5 15h62.306v78.187h-62.306zm139.613 78.187h-62.306v-78.187h62.306z" fill="#ffffff"/><path d="m504.501 481.431h-8.028v-84.879c0-4.143-3.357-7.5-7.5-7.5s-7.5 3.357-7.5 7.5v84.881h-217.972v-171.377h217.971v53.817c0 4.143 3.357 7.5 7.5 7.5s7.5-3.357 7.5-7.5v-53.817h8.028c6.271-1.124 8.507-4.743 6.708-10.855l-31.063-62.124c-1.271-2.54-3.867-4.146-6.708-4.146h-23.566v-109.251h23.57c6.271-1.125 8.507-4.744 6.708-10.856l-31.071-62.12c-1.271-2.541-3.867-4.146-6.708-4.146h-107.898c-9.905.331-9.947 14.652 0 15h103.266l23.569 47.12h-195.17l-47.121-47.12h82.767c4.143 0 7.5-3.357 7.5-7.5s-3.357-7.5-7.5-7.5h-97.767l-24.287-24.286c-8.982-8.979-23.629-9.016-32.655-.084l-109.844 108.72c-18.731 19.523 1.334 49.023 24.9 37.956v72.126c-24.669-19.559-62.414-1.254-62.128 30.505 0-.001 0 93.187 0 93.187 0 18.696 13.374 34.327 31.058 37.829v78.921h-23.558c-4.143 0-7.5 3.357-7.5 7.5s3.357 7.5 7.5 7.5h497c9.686-.255 10.161-14.559-.001-15.001zm-12.136-186.376-228.864-.004v-47.12h205.302zm-57.492-93.187h-109.247v-47.124h109.247zm0-78.188v16.064h-116.747c-4.143 0-7.5 3.357-7.5 7.5v62.124c0 4.143 3.357 7.5 7.5 7.5h116.747v16.063h-171.372v-64.312c22.124 8.841 42.95-19.62 24.947-37.627l-7.312-7.312zm-387.091 17.889 109.845-108.719c3.177-3.145 8.334-3.131 11.495.03 0 0 108.72 108.719 108.72 108.719 7.935 7.931-2.002 20.882-11.757 11.295l-97.478-97.479c-2.92-2.918-7.647-2.931-10.58-.026l-98.78 97.767c-7.997 6.649-18.997-4.226-11.465-11.587zm-32.781 223.112v-93.187c1.189-31.224 45.948-31.2 47.125 0v93.187c0 12.959-10.517 23.508-23.463 23.562-.068-.002-.137-.002-.205 0-12.944-.057-23.457-10.605-23.457-23.562zm31.058 37.831c5.962-1.179 11.435-3.737 16.07-7.326v86.245h-16.07zm77.661 78.921v-140.311h22.75c9.931-.344 9.924-14.66 0-15h-30.25c-4.143 0-7.5 3.357-7.5 7.5v147.811h-31.59v-324.873l86.145-85.262 85.226 85.227v324.908h-31.59v-147.811c0-4.143-3.357-7.5-7.5-7.5h-30.25c-9.931.344-9.924 14.66 0 15h22.75v140.311z" fill="#ffffff"/></g></svg>